<svg xmlns="http://www.w3.org/2000/svg" height="48" viewBox="0 96 960 960" width="48">
	<path
		d="M-8 824v-61q0-43.021 43.5-69.01Q79 668 150.376 668q8.165 0 15.395.5 7.229.5 15.229.152-10 20.348-14.5 40.024Q162 728.352 162 751v73H-8Zm240 0v-73q0-34 17.478-62.185Q266.955 660.63 301 640q33.867-21 79.292-31.5 45.425-10.5 99.546-10.5 55.162 0 100.559 10.5Q625.793 619 660 640q33 21 50.5 49t17.5 62v73H232Zm566 0v-73.143q0-22.088-4.5-42.407-4.5-20.32-13.5-39.723 8 .273 15.229-.227 7.228-.5 14.771-.5 71.7 0 114.85 25.639Q968 719.278 968 763v61H798ZM149.611 640Q119 640 97 617.995q-22-22.006-22-52.907Q75 534 97.005 512q22.006-22 52.907-22Q181 490 203 511.925t22 53.464Q225 596 203.075 618q-21.925 22-53.464 22Zm660 0Q779 640 757 617.995q-22-22.006-22-52.907Q735 534 757.005 512q22.006-22 52.907-22Q841 490 863 511.925t22 53.464Q885 596 863.075 618q-21.925 22-53.464 22Zm-329.14-72q-53.138 0-90.804-37.211Q352 493.579 352 440.421 352 387 389.667 349.5q37.666-37.5 90.804-37.5 53.4 0 90.464 37.268Q608 386.535 608 440.235q0 53.432-37.065 90.598Q533.871 568 480.471 568Z"
		fill="#333" />
</svg>