<svg xmlns="http://www.w3.org/2000/svg" height="48" viewBox="0 96 960 960" width="48">
	<path
		d="m85 519 174-175q16-16 38.5-23t45.5-2l82 15q-54 61-90.5 120T262 595L85 519Zm223 94q34-79 79-147.5T482 347q86-86 197.5-128.5T890 191q14 99-28 210T734 598q-49 49-118.5 94T467 772L308 613Zm294-135q19 19 46 19t46-19q19-18 19-45.5T694 386q-19-18-46-18t-46 18q-19 19-19 46.5t19 45.5Zm-41 517-76-177q82-36 140.5-72.5T746 654l15 82q4 24-3 46.5T735 821L561 995ZM149 753q37-37 89.5-37.5T328 752q37 37 37 89.5T328 931q-28 28-84 46t-173 32q14-117 32-172.5t46-83.5Z"
		fill="#333" />
</svg>